<svg xmlns="http://www.w3.org/2000/svg" viewBox="0 0 28 28" fill="none">
  <path d="M14 2 C7 2 3 7 3 13 C3 17.5 5.5 21 9 22 L9 26 L19 26 L19 22 C22.5 21 25 17.5 25 13 C25 7 21 2 14 2Z" fill="#c00000"/>
  <ellipse cx="10" cy="13" rx="3.5" ry="4.5" fill="#000" opacity="0.8"/>
  <ellipse cx="18" cy="13" rx="3.5" ry="4.5" fill="#000" opacity="0.8"/>
  <circle cx="10.5" cy="12" r="1.2" fill="white" opacity="0.4"/>
  <circle cx="18.5" cy="12" r="1.2" fill="white" opacity="0.4"/>
  <rect x="10" y="22.5" width="2.5" height="3" rx="0.5" fill="#000" opacity="0.5"/>
  <rect x="13.5" y="22.5" width="1.5" height="3" rx="0.5" fill="#000" opacity="0.5"/>
  <rect x="16" y="22.5" width="2.5" height="3" rx="0.5" fill="#000" opacity="0.5"/>
</svg>
