<svg xmlns="http://www.w3.org/2000/svg" viewBox="0 0 28 28" fill="none">
  <path d="M4 14 C4 7 8 3 14 3 C20 3 24 7 24 14 C24 20 21 25 14 26 C7 25 4 20 4 14Z" fill="#10a060" opacity="0.85"/>
  <path d="M7 15 C7 12 8 10 10 9 L18 9 C20 10 21 12 21 15 C21 18 19 20 14 21 C9 20 7 18 7 15Z" fill="#000" opacity="0.6"/>
  <path d="M9 14 Q14 11 19 14" stroke="#f59f00" stroke-width="2" fill="none" stroke-linecap="round" opacity="0.9"/>
  <path d="M8 10 C8 7 11 5 14 5 C17 5 20 7 20 10" stroke="#10a060" stroke-width="2.5" fill="none" stroke-linecap="round" opacity="0.6"/>
</svg>
