<svg xmlns="http://www.w3.org/2000/svg" viewBox="0 0 28 28" fill="none">
  <path d="M2 18 C2 18 5 14 9 13 L18 12 C22 11 26 13 26 17 C26 19 24 20 22 20 L6 20 C4 20 2 19 2 18Z" fill="#e8c200"/>
  <path d="M7 13 C7 11 9 9 12 9 L20 9 C23 9 25 11 25 13" fill="#e8c200" opacity="0.7"/>
  <rect x="6" y="9" width="8" height="4" rx="1" fill="white" opacity="0.2"/>
  <circle cx="8" cy="21.5" r="3.5" fill="#111" stroke="#e8c200" stroke-width="1.5"/>
  <circle cx="8" cy="21.5" r="1.5" fill="#e8c200" opacity="0.5"/>
  <circle cx="21" cy="21.5" r="3.5" fill="#111" stroke="#e8c200" stroke-width="1.5"/>
  <circle cx="21" cy="21.5" r="1.5" fill="#e8c200" opacity="0.5"/>
</svg>
