<svg xmlns="http://www.w3.org/2000/svg" viewBox="0 0 28 28" fill="none">
  <rect x="10.7" y="3.9" width="3" height="3" rx="0.4" fill="#ffffff"/>
  <rect x="14.1" y="3.9" width="3" height="3" rx="0.4" fill="#ffffff"/>
  <rect x="7.3" y="7.3" width="3" height="3" rx="0.4" fill="#ffffff"/>
  <rect x="10.7" y="7.3" width="3" height="3" rx="0.4" fill="#ffffff"/>
  <rect x="14.1" y="7.3" width="3" height="3" rx="0.4" fill="#ffffff"/>
  <rect x="17.5" y="7.3" width="3" height="3" rx="0.4" fill="#ffffff"/>
  <rect x="0.5" y="10.7" width="3" height="3" rx="0.4" fill="#ffffff"/>
  <rect x="3.9" y="10.7" width="3" height="3" rx="0.4" fill="#ffffff"/>
  <rect x="7.3" y="10.7" width="3" height="3" rx="0.4" fill="#ffffff"/>
  <rect x="10.7" y="10.7" width="3" height="3" rx="0.4" fill="#ffffff"/>
  <rect x="14.1" y="10.7" width="3" height="3" rx="0.4" fill="#ffffff"/>
  <rect x="17.5" y="10.7" width="3" height="3" rx="0.4" fill="#ffffff"/>
  <rect x="20.9" y="10.7" width="3" height="3" rx="0.4" fill="#ffffff"/>
  <rect x="24.3" y="10.7" width="3" height="3" rx="0.4" fill="#ffffff"/>
  <rect x="0.5" y="14.1" width="3" height="3" rx="0.4" fill="#ffffff"/>
  <rect x="3.9" y="14.1" width="3" height="3" rx="0.4" fill="#ffffff"/>
  <rect x="10.7" y="14.1" width="3" height="3" rx="0.4" fill="#ffffff"/>
  <rect x="14.1" y="14.1" width="3" height="3" rx="0.4" fill="#ffffff"/>
  <rect x="20.9" y="14.1" width="3" height="3" rx="0.4" fill="#ffffff"/>
  <rect x="24.3" y="14.1" width="3" height="3" rx="0.4" fill="#ffffff"/>
  <rect x="0.5" y="17.5" width="3" height="3" rx="0.4" fill="#ffffff"/>
  <rect x="3.9" y="17.5" width="3" height="3" rx="0.4" fill="#ffffff"/>
  <rect x="7.3" y="17.5" width="3" height="3" rx="0.4" fill="#ffffff"/>
  <rect x="10.7" y="17.5" width="3" height="3" rx="0.4" fill="#ffffff"/>
  <rect x="14.1" y="17.5" width="3" height="3" rx="0.4" fill="#ffffff"/>
  <rect x="17.5" y="17.5" width="3" height="3" rx="0.4" fill="#ffffff"/>
  <rect x="20.9" y="17.5" width="3" height="3" rx="0.4" fill="#ffffff"/>
  <rect x="24.3" y="17.5" width="3" height="3" rx="0.4" fill="#ffffff"/>
  <rect x="7.3" y="20.9" width="3" height="3" rx="0.4" fill="#ffffff"/>
  <rect x="17.5" y="20.9" width="3" height="3" rx="0.4" fill="#ffffff"/>
  <rect x="3.9" y="24.3" width="3" height="3" rx="0.4" fill="#ffffff"/>
  <rect x="7.3" y="24.3" width="3" height="3" rx="0.4" fill="#ffffff"/>
  <rect x="17.5" y="24.3" width="3" height="3" rx="0.4" fill="#ffffff"/>
  <rect x="20.9" y="24.3" width="3" height="3" rx="0.4" fill="#ffffff"/>
</svg>
