<svg xmlns="http://www.w3.org/2000/svg" viewBox="0 0 28 28" fill="none">
  <path d="M14 3 C7 3 4 8 4 14 C4 20 7 24 14 25 C21 24 24 20 24 14 C24 8 21 3 14 3Z" fill="#1578da" opacity="0.85"/>
  <path d="M7 15 C7 13 8 11 10 10 L18 10 C20 11 21 13 21 15 C21 18 18 20 14 20 C10 20 7 18 7 15Z" fill="#000" opacity="0.55"/>
  <path d="M9 14 Q14 11 19 14" stroke="#1578da" stroke-width="1.5" fill="none" stroke-linecap="round"/>
  <path d="M8 10 C8 6 10 4 14 4 C18 4 20 6 20 10" stroke="#1578da" stroke-width="2" fill="none" stroke-linecap="round"/>
</svg>
